<svg version="1.1" id="Layer_1" xmlns="http://www.w3.org/2000/svg" xmlns:xlink="http://www.w3.org/1999/xlink" x="0px" y="0px"
	 width="100%" viewBox="0 0 512 512" enable-background="new 0 0 512 512" xml:space="preserve">
<path fill="#000000" opacity="1.000000" stroke="none" 
	d="
M1.000000,196.000000 
	C1.000000,130.666672 1.000000,65.833336 1.000000,1.000000 
	C171.666672,1.000000 342.333344,1.000000 513.000000,1.000000 
	C513.000000,171.666672 513.000000,342.333344 513.000000,513.000000 
	C342.333344,513.000000 171.666672,513.000000 1.000000,513.000000 
	C1.000000,407.500000 1.000000,302.000000 1.000000,196.000000 
M406.956543,70.004013 
	C309.346008,70.021278 211.735474,70.038544 113.185188,70.020576 
	C109.419670,70.029800 105.654160,70.039024 100.966255,70.003387 
	C75.050507,70.003387 49.134766,70.003387 23.044922,70.003387 
	C23.044922,130.013077 23.044922,189.456039 23.000223,249.836884 
	C23.022802,253.608978 23.045382,257.381073 23.004761,262.069366 
	C23.004761,322.634338 23.004761,383.199341 23.004761,443.866547 
	C24.192764,443.930115 24.836641,443.994690 25.480522,443.994720 
	C116.763573,443.999542 208.046631,444.005096 299.329651,443.954315 
	C300.876953,443.953461 302.423889,443.267670 304.450562,443.515991 
	C306.011627,443.657776 307.572662,443.799561 310.052856,443.995911 
	C368.949738,443.995911 427.846588,443.995911 486.929749,443.995911 
	C486.929749,391.026855 486.929749,338.588745 486.947662,285.324341 
	C486.942444,284.498474 486.937225,283.672638 486.995239,281.930603 
	C486.995239,211.376328 486.995239,140.822067 486.995239,70.049255 
	C464.354279,70.049255 442.232086,70.049255 419.171509,70.008003 
	C415.406647,70.024399 411.641815,70.040794 406.956543,70.004013 
z"/>
<path fill="#FFFFFF" opacity="1.000000" stroke="none" 
	d="
M420.109863,70.049255 
	C442.232086,70.049255 464.354279,70.049255 486.995239,70.049255 
	C486.995239,140.822067 486.995239,211.376328 486.563416,282.243225 
	C485.983337,261.233459 479.047272,242.274277 466.713440,224.726196 
	C457.659363,256.591705 432.085785,273.494202 408.111542,293.350311 
	C425.252167,289.336578 438.913849,293.531799 449.737305,305.404083 
	C459.247955,315.836365 464.452728,328.396729 464.979675,342.667267 
	C465.114441,346.316681 464.999908,349.975342 464.999908,354.711304 
	C476.720062,337.890472 486.969604,310.822266 486.049011,290.580292 
	C485.982635,289.120117 486.619751,287.627960 486.929749,286.150665 
	C486.929749,338.588745 486.929749,391.026855 486.929749,443.995911 
	C427.846588,443.995911 368.949738,443.995911 309.725830,443.576630 
	C317.536743,441.763763 325.785583,440.828766 333.792450,438.892975 
	C360.800446,432.363403 386.445007,422.315155 410.327301,407.989075 
	C411.954681,407.012909 413.363800,405.672913 415.051727,404.364685 
	C413.810516,404.044800 412.921265,403.815613 412.251617,403.643036 
	C413.202637,398.114227 414.918610,392.878815 414.841827,387.669830 
	C414.635712,373.685089 414.732727,359.553925 412.702301,345.776733 
	C410.548553,331.162506 404.925964,317.531555 393.612183,306.956299 
	C391.223267,304.723328 389.545013,304.909393 387.215698,306.328278 
	C367.907471,318.089752 347.535675,327.663513 326.153778,334.919128 
	C314.765167,338.783661 303.023529,341.608002 291.487061,344.888855 
	C324.902344,372.307556 322.172882,418.421875 303.970978,442.901489 
	C302.423889,443.267670 300.876953,443.953461 299.329651,443.954315 
	C208.046631,444.005096 116.763573,443.999542 25.480522,443.994720 
	C24.836641,443.994690 24.192764,443.930115 23.004761,443.866547 
	C23.004761,383.199341 23.004761,322.634338 23.410578,261.719849 
	C25.178509,270.535004 29.342237,278.203949 36.000183,284.619690 
	C36.960648,285.545197 37.656006,286.997498 37.950813,288.322449 
	C40.397717,299.319427 42.194771,310.492493 45.248516,321.313080 
	C47.712605,330.044281 51.648319,338.360199 54.931164,346.860382 
	C55.274925,331.912842 60.843380,319.467560 69.959175,308.746979 
	C79.156708,297.930267 91.057411,291.451111 105.996033,290.174744 
	C105.514145,289.306885 104.716339,289.002289 104.040504,288.524963 
	C90.554276,278.999939 77.983124,268.402863 70.229050,253.536942 
	C62.532856,238.782013 53.009693,224.582687 52.832397,206.916321 
	C52.818005,205.482162 51.577076,202.316025 49.005260,204.643280 
	C45.729401,207.607697 42.616108,210.893646 40.070976,214.492355 
	C35.603600,220.809052 37.276066,228.272125 36.967754,235.351334 
	C36.876801,237.439682 36.386806,239.510635 36.079678,241.589569 
	C35.782379,241.569427 35.485081,241.549271 35.187782,241.529129 
	C34.639984,239.039383 34.092190,236.549637 33.395321,233.382355 
	C27.790535,237.414413 24.958515,242.831604 23.044922,248.899017 
	C23.044922,189.456039 23.044922,130.013077 23.044922,70.003387 
	C49.134766,70.003387 75.050507,70.003387 101.330399,70.396011 
	C95.501884,71.519981 92.983620,74.288765 93.057701,81.273041 
	C93.146973,89.690231 93.286179,98.139748 94.098839,106.507782 
	C95.038437,116.182861 96.303421,125.870758 98.209274,135.396606 
	C100.731102,148.001175 104.058983,160.443237 106.894699,172.988068 
	C107.186340,174.278259 106.933334,176.130646 106.167732,177.143906 
	C103.035393,181.289536 99.981133,185.613693 96.205658,189.128220 
	C89.031509,195.806519 81.382133,201.974319 73.697144,208.553589 
	C77.904678,207.765427 82.199059,207.099472 86.428169,206.144501 
	C103.536102,202.281418 116.531860,191.048355 130.209015,181.206329 
	C149.636963,167.226059 169.885071,154.915588 193.147141,148.486023 
	C201.456070,146.189484 209.904846,145.124420 218.744949,146.782883 
	C228.858414,148.680206 237.213989,153.613739 244.472046,160.235046 
	C250.987854,166.179214 257.185486,172.756577 259.751923,182.272034 
	C260.798309,181.867966 262.611237,181.694138 262.838257,181.000931 
	C265.992493,171.369965 272.724548,164.708664 280.161438,158.227463 
	C293.108154,146.944443 307.989075,143.481720 324.179962,147.222443 
	C349.016998,152.960785 370.412964,166.027634 391.089111,180.473221 
	C402.154816,188.204361 413.519958,195.559662 425.137024,202.430099 
	C432.770721,206.944748 442.072662,208.363907 447.984222,207.332199 
	C435.634735,199.324219 424.856232,190.016953 416.676392,178.045959 
	C415.637695,176.525833 415.067200,174.094040 415.419220,172.309372 
	C418.129547,158.568985 420.948822,144.844666 424.071014,131.192383 
	C427.626984,115.643280 429.445892,99.968094 429.041779,84.006020 
	C428.810425,74.869141 427.801117,72.982422 420.109863,70.049255 
M180.817062,185.995712 
	C180.248871,186.315384 179.717133,186.773331 179.107071,186.934158 
	C168.388580,189.759705 157.841995,192.942322 148.321899,198.923706 
	C140.162567,204.050125 132.044525,209.326782 123.487167,213.716141 
	C109.313560,220.986252 93.885468,223.046875 78.111351,223.006042 
	C68.441208,222.981018 66.944817,225.325790 71.000023,234.019516 
	C71.138748,234.316925 71.272041,234.616943 71.414833,234.912369 
	C82.389168,257.617462 99.962814,273.763977 122.156937,284.968140 
	C142.595505,295.286011 163.305038,305.069916 183.953781,314.966858 
	C189.639038,317.691833 195.533951,319.979340 202.005554,322.756317 
	C200.507263,318.690521 198.922211,315.786255 198.415909,312.704773 
	C197.544495,307.400940 196.431519,301.874023 197.076431,296.645050 
	C198.058441,288.682922 205.965729,285.927185 211.001099,280.989227 
	C218.565018,273.571747 226.265579,266.229218 233.160355,258.211792 
	C240.052521,250.197449 242.816025,240.334106 244.219421,229.802002 
	C245.864273,217.457962 243.311417,206.768646 235.007950,197.544846 
	C226.256134,187.822998 214.447205,184.920639 202.184814,184.191391 
	C195.413239,183.788696 188.525848,185.333008 180.817062,185.995712 
M285.376190,253.965240 
	C293.828156,266.648773 304.891876,276.659607 317.044464,285.709747 
	C322.656830,289.889282 327.450256,295.320770 325.855133,303.192169 
	C324.577148,309.498657 322.471954,315.637482 320.696320,321.985016 
	C321.317444,321.933655 322.035522,322.055786 322.579376,321.803040 
	C340.808746,313.332367 359.073425,304.935120 377.223511,296.297150 
	C400.003662,285.455719 423.118347,274.867737 438.591766,253.688416 
	C444.049866,246.217606 448.257050,237.792908 452.613098,229.579742 
	C454.032959,226.902618 453.405029,224.004517 449.252502,223.691650 
	C442.563690,223.187729 435.887787,222.511246 429.198547,222.013428 
	C415.081665,220.962830 402.296539,216.436356 390.219360,208.915817 
	C379.780243,202.415283 368.976990,196.164352 357.626038,191.544113 
	C341.752838,185.083191 325.168823,181.462433 307.756348,185.946167 
	C287.526123,191.155487 277.364502,204.625565 277.113312,224.153641 
	C276.980804,234.455017 280.354218,244.130264 285.376190,253.965240 
M195.043701,338.471008 
	C187.102692,335.522003 179.139893,332.629974 171.226562,329.608459 
	C162.772369,326.380432 155.209091,321.017395 144.967499,323.806091 
	C129.154251,328.111969 115.717545,335.450745 105.989441,348.848969 
	C97.689384,360.280457 95.743027,373.363983 97.155052,386.959717 
	C97.685814,392.070160 98.373108,397.722778 103.534935,401.033173 
	C112.330475,406.674011 120.816368,412.878204 129.963211,417.873688 
	C147.830841,427.631989 167.112640,433.755707 186.988251,437.967133 
	C194.767563,439.615479 202.623276,440.903198 210.770599,442.415741 
	C191.779816,406.344025 194.292099,373.947632 223.648132,345.326080 
	C214.223663,343.174927 204.973969,341.063660 195.043701,338.471008 
M286.000031,307.601624 
	C286.547363,302.466064 283.866608,299.138641 279.637207,296.990692 
	C267.897552,291.028534 255.813339,291.268616 243.891113,296.105469 
	C236.491699,299.107452 233.883209,305.415527 236.651367,313.070587 
	C241.397171,326.194733 257.511230,334.697540 271.648834,327.597717 
	C279.258484,323.776215 285.932159,318.375427 286.000031,307.601624 
z"/>
<path fill="#1D1D1D" opacity="1.000000" stroke="none" 
	d="
M419.640686,70.028625 
	C427.801117,72.982422 428.810425,74.869141 429.041779,84.006020 
	C429.445892,99.968094 427.626984,115.643280 424.071014,131.192383 
	C420.948822,144.844666 418.129547,158.568985 415.419220,172.309372 
	C415.067200,174.094040 415.637695,176.525833 416.676392,178.045959 
	C424.856232,190.016953 435.634735,199.324219 447.984222,207.332199 
	C442.072662,208.363907 432.770721,206.944748 425.137024,202.430099 
	C413.519958,195.559662 402.154816,188.204361 391.089111,180.473221 
	C370.412964,166.027634 349.016998,152.960785 324.179962,147.222443 
	C307.989075,143.481720 293.108154,146.944443 280.161438,158.227463 
	C272.724548,164.708664 265.992493,171.369965 262.838257,181.000931 
	C262.611237,181.694138 260.798309,181.867966 259.751923,182.272034 
	C257.185486,172.756577 250.987854,166.179214 244.472046,160.235046 
	C237.213989,153.613739 228.858414,148.680206 218.744949,146.782883 
	C209.904846,145.124420 201.456070,146.189484 193.147141,148.486023 
	C169.885071,154.915588 149.636963,167.226059 130.209015,181.206329 
	C116.531860,191.048355 103.536102,202.281418 86.428169,206.144501 
	C82.199059,207.099472 77.904678,207.765427 73.697144,208.553589 
	C81.382133,201.974319 89.031509,195.806519 96.205658,189.128220 
	C99.981133,185.613693 103.035393,181.289536 106.167732,177.143906 
	C106.933334,176.130646 107.186340,174.278259 106.894699,172.988068 
	C104.058983,160.443237 100.731102,148.001175 98.209274,135.396606 
	C96.303421,125.870758 95.038437,116.182861 94.098839,106.507782 
	C93.286179,98.139748 93.146973,89.690231 93.057701,81.273041 
	C92.983620,74.288765 95.501884,71.519981 101.791595,70.418442 
	C105.654160,70.039024 109.419670,70.029800 113.760445,70.411911 
	C121.330490,73.469643 128.700714,75.437042 135.240997,78.949699 
	C148.378799,86.005745 161.084167,93.870567 173.916916,101.487671 
	C176.254303,102.875076 178.041580,102.724258 180.363510,101.227852 
	C198.061661,89.821999 216.826965,81.287804 237.906067,77.798424 
	C254.847244,74.994019 271.669220,75.097061 288.284424,78.262215 
	C307.201996,81.865967 324.612701,89.974983 340.703979,100.481110 
	C344.505432,102.963112 346.968170,102.410492 350.024689,100.461533 
	C368.459076,88.706886 386.952637,77.071716 407.876953,70.057190 
	C411.641815,70.040794 415.406647,70.024399 419.640686,70.028625 
z"/>
<path fill="#1D1D1D" opacity="1.000000" stroke="none" 
	d="
M304.210754,443.208740 
	C322.172882,418.421875 324.902344,372.307556 291.487061,344.888855 
	C303.023529,341.608002 314.765167,338.783661 326.153778,334.919128 
	C347.535675,327.663513 367.907471,318.089752 387.215698,306.328278 
	C389.545013,304.909393 391.223267,304.723328 393.612183,306.956299 
	C404.925964,317.531555 410.548553,331.162506 412.702301,345.776733 
	C414.732727,359.553925 414.635712,373.685089 414.841827,387.669830 
	C414.918610,392.878815 413.202637,398.114227 412.251617,403.643036 
	C412.921265,403.815613 413.810516,404.044800 415.051727,404.364685 
	C413.363800,405.672913 411.954681,407.012909 410.327301,407.989075 
	C386.445007,422.315155 360.800446,432.363403 333.792450,438.892975 
	C325.785583,440.828766 317.536743,441.763763 309.266266,443.549347 
	C307.572662,443.799561 306.011627,443.657776 304.210754,443.208740 
z"/>
<path fill="#1D1D1D" opacity="1.000000" stroke="none" 
	d="
M23.022572,249.367950 
	C24.958515,242.831604 27.790535,237.414413 33.395321,233.382355 
	C34.092190,236.549637 34.639984,239.039383 35.187782,241.529129 
	C35.485081,241.549271 35.782379,241.569427 36.079678,241.589569 
	C36.386806,239.510635 36.876801,237.439682 36.967754,235.351334 
	C37.276066,228.272125 35.603600,220.809052 40.070976,214.492355 
	C42.616108,210.893646 45.729401,207.607697 49.005260,204.643280 
	C51.577076,202.316025 52.818005,205.482162 52.832397,206.916321 
	C53.009693,224.582687 62.532856,238.782013 70.229050,253.536942 
	C77.983124,268.402863 90.554276,278.999939 104.040504,288.524963 
	C104.716339,289.002289 105.514145,289.306885 105.996033,290.174744 
	C91.057411,291.451111 79.156708,297.930267 69.959175,308.746979 
	C60.843380,319.467560 55.274925,331.912842 54.931164,346.860382 
	C51.648319,338.360199 47.712605,330.044281 45.248516,321.313080 
	C42.194771,310.492493 40.397717,299.319427 37.950813,288.322449 
	C37.656006,286.997498 36.960648,285.545197 36.000183,284.619690 
	C29.342237,278.203949 25.178509,270.535004 23.442179,261.261780 
	C23.045382,257.381073 23.022802,253.608978 23.022572,249.367950 
z"/>
<path fill="#FFFFFF" opacity="1.000000" stroke="none" 
	d="
M407.416748,70.030602 
	C386.952637,77.071716 368.459076,88.706886 350.024689,100.461533 
	C346.968170,102.410492 344.505432,102.963112 340.703979,100.481110 
	C324.612701,89.974983 307.201996,81.865967 288.284424,78.262215 
	C271.669220,75.097061 254.847244,74.994019 237.906067,77.798424 
	C216.826965,81.287804 198.061661,89.821999 180.363510,101.227852 
	C178.041580,102.724258 176.254303,102.875076 173.916916,101.487671 
	C161.084167,93.870567 148.378799,86.005745 135.240997,78.949699 
	C128.700714,75.437042 121.330490,73.469643 114.230316,70.429520 
	C211.735474,70.038544 309.346008,70.021278 407.416748,70.030602 
z"/>
<path fill="#1D1D1D" opacity="1.000000" stroke="none" 
	d="
M486.938721,285.737488 
	C486.619751,287.627960 485.982635,289.120117 486.049011,290.580292 
	C486.969604,310.822266 476.720062,337.890472 464.999908,354.711304 
	C464.999908,349.975342 465.114441,346.316681 464.979675,342.667267 
	C464.452728,328.396729 459.247955,315.836365 449.737305,305.404083 
	C438.913849,293.531799 425.252167,289.336578 408.111542,293.350311 
	C432.085785,273.494202 457.659363,256.591705 466.713440,224.726196 
	C479.047272,242.274277 485.983337,261.233459 486.531799,282.701324 
	C486.937225,283.672638 486.942444,284.498474 486.938721,285.737488 
z"/>
<path fill="#1D1D1D" opacity="1.000000" stroke="none" 
	d="
M181.253876,185.997665 
	C188.525848,185.333008 195.413239,183.788696 202.184814,184.191391 
	C214.447205,184.920639 226.256134,187.822998 235.007950,197.544846 
	C243.311417,206.768646 245.864273,217.457962 244.219421,229.802002 
	C242.816025,240.334106 240.052521,250.197449 233.160355,258.211792 
	C226.265579,266.229218 218.565018,273.571747 211.001099,280.989227 
	C205.965729,285.927185 198.058441,288.682922 197.076431,296.645050 
	C196.431519,301.874023 197.544495,307.400940 198.415909,312.704773 
	C198.922211,315.786255 200.507263,318.690521 202.005554,322.756317 
	C195.533951,319.979340 189.639038,317.691833 183.953781,314.966858 
	C163.305038,305.069916 142.595505,295.286011 122.156937,284.968140 
	C99.962814,273.763977 82.389168,257.617462 71.414833,234.912369 
	C71.272041,234.616943 71.138748,234.316925 71.000023,234.019516 
	C66.944817,225.325790 68.441208,222.981018 78.111351,223.006042 
	C93.885468,223.046875 109.313560,220.986252 123.487167,213.716141 
	C132.044525,209.326782 140.162567,204.050125 148.321899,198.923706 
	C157.841995,192.942322 168.388580,189.759705 179.107071,186.934158 
	C179.717133,186.773331 180.248871,186.315384 181.253876,185.997665 
M184.016724,225.384262 
	C183.749603,236.126282 196.313782,245.674591 208.248444,241.189713 
	C220.735779,236.497147 224.373856,220.678146 214.500107,211.732681 
	C208.896896,206.656281 201.568008,205.906189 195.916214,207.772232 
	C188.235001,210.308350 183.939438,216.998688 184.016724,225.384262 
z"/>
<path fill="#1D1D1D" opacity="1.000000" stroke="none" 
	d="
M285.181000,253.637680 
	C280.354218,244.130264 276.980804,234.455017 277.113312,224.153641 
	C277.364502,204.625565 287.526123,191.155487 307.756348,185.946167 
	C325.168823,181.462433 341.752838,185.083191 357.626038,191.544113 
	C368.976990,196.164352 379.780243,202.415283 390.219360,208.915817 
	C402.296539,216.436356 415.081665,220.962830 429.198547,222.013428 
	C435.887787,222.511246 442.563690,223.187729 449.252502,223.691650 
	C453.405029,224.004517 454.032959,226.902618 452.613098,229.579742 
	C448.257050,237.792908 444.049866,246.217606 438.591766,253.688416 
	C423.118347,274.867737 400.003662,285.455719 377.223511,296.297150 
	C359.073425,304.935120 340.808746,313.332367 322.579376,321.803040 
	C322.035522,322.055786 321.317444,321.933655 320.696320,321.985016 
	C322.471954,315.637482 324.577148,309.498657 325.855133,303.192169 
	C327.450256,295.320770 322.656830,289.889282 317.044464,285.709747 
	C304.891876,276.659607 293.828156,266.648773 285.181000,253.637680 
M309.057770,210.358078 
	C301.280792,218.765701 299.575073,225.469604 303.933380,232.615738 
	C307.968658,239.232193 313.638062,242.625763 321.928894,242.155045 
	C331.139679,241.632080 341.736328,230.412308 337.183899,218.676178 
	C333.241272,208.512283 320.795715,202.639954 309.057770,210.358078 
z"/>
<path fill="#1D1D1D" opacity="1.000000" stroke="none" 
	d="
M195.383987,338.711731 
	C204.973969,341.063660 214.223663,343.174927 223.648132,345.326080 
	C194.292099,373.947632 191.779816,406.344025 210.770599,442.415741 
	C202.623276,440.903198 194.767563,439.615479 186.988251,437.967133 
	C167.112640,433.755707 147.830841,427.631989 129.963211,417.873688 
	C120.816368,412.878204 112.330475,406.674011 103.534935,401.033173 
	C98.373108,397.722778 97.685814,392.070160 97.155052,386.959717 
	C95.743027,373.363983 97.689384,360.280457 105.989441,348.848969 
	C115.717545,335.450745 129.154251,328.111969 144.967499,323.806091 
	C155.209091,321.017395 162.772369,326.380432 171.226562,329.608459 
	C179.139893,332.629974 187.102692,335.522003 195.383987,338.711731 
z"/>
<path fill="#1D1D1D" opacity="1.000000" stroke="none" 
	d="
M286.000000,308.038574 
	C285.932159,318.375427 279.258484,323.776215 271.648834,327.597717 
	C257.511230,334.697540 241.397171,326.194733 236.651367,313.070587 
	C233.883209,305.415527 236.491699,299.107452 243.891113,296.105469 
	C255.813339,291.268616 267.897552,291.028534 279.637207,296.990692 
	C283.866608,299.138641 286.547363,302.466064 286.000000,308.038574 
z"/>
<path fill="#FFFFFF" opacity="1.000000" stroke="none" 
	d="
M184.033539,224.942139 
	C183.939438,216.998688 188.235001,210.308350 195.916214,207.772232 
	C201.568008,205.906189 208.896896,206.656281 214.500107,211.732681 
	C224.373856,220.678146 220.735779,236.497147 208.248444,241.189713 
	C196.313782,245.674591 183.749603,236.126282 184.033539,224.942139 
z"/>
<path fill="#FFFFFF" opacity="1.000000" stroke="none" 
	d="
M309.355042,210.124390 
	C320.795715,202.639954 333.241272,208.512283 337.183899,218.676178 
	C341.736328,230.412308 331.139679,241.632080 321.928894,242.155045 
	C313.638062,242.625763 307.968658,239.232193 303.933380,232.615738 
	C299.575073,225.469604 301.280792,218.765701 309.355042,210.124390 
z"/>
</svg>